<svg width="1922" height="1081" viewBox="0 0 1922 1081" fill="none" xmlns="http://www.w3.org/2000/svg">
<path d="M1.70355 1081L1 1L1920.3 1M63.6164 1L63.6163 1081M125.529 1L125.529 1081M187.442 1L187.442 1081M249.355 1L249.355 1081M311.268 1L311.267 1081M373.18 1L373.18 1081M435.093 1L435.093 1081M497.006 1L497.006 1081M1 1038.98H1920.3M558.919 1L558.919 1081M1 974.106H1920.3M620.831 1L620.831 1081M1 909.232H1920.3M682.744 1L682.744 1081M1 844.358H1920.3M744.657 1L744.657 1081M1 779.485H1920.3M806.57 1L806.57 1081M1 714.611H1920.3M868.483 1L868.483 1081M1 649.737H1920.3M930.395 1L930.395 1081M1 584.864H1920.3M992.308 1L992.308 1081M1 519.99H1920.3M1054.22 1L1054.22 1081M1 455.116H1920.3M1116.13 1V1081M1 390.242H1920.3M1178.05 1L1178.05 1081M1 325.369H1920.3M1239.96 1V1081M1 260.495H1920.3M1301.87 1L1301.87 1081M1 195.621H1920.3M1363.79 1L1363.78 1081M1 130.747H1920.3M1425.7 1L1425.7 1081M1 65.8737H1920.3M1487.61 1V1081M1549.52 1V1081M1611.44 1V1081M1673.35 1V1081M1735.26 1V1081M1797.17 1V1081M1859.09 1V1081M1921 1V1081" stroke="url(#paint0_radial_698_609)" stroke-width="0.888544"/>
<defs>
<radialGradient id="paint0_radial_698_609" cx="0" cy="0" r="1" gradientUnits="userSpaceOnUse" gradientTransform="translate(961 476.907) rotate(90) scale(604.093 1073.94)">
<stop stop-color="white" stop-opacity="0.12"/>
<stop offset="0.6" stop-color="white" stop-opacity="0"/>
</radialGradient>
</defs>
</svg>
