<svg width="668" height="667" viewBox="0 0 668 667" fill="none" xmlns="http://www.w3.org/2000/svg">
<g clip-path="url(#clip0_66_100)">
<path d="M334.001 666.997C518.095 666.997 667.335 517.76 667.335 333.663C667.335 149.568 518.095 0.330017 334.001 0.330017C149.906 0.330017 0.667969 149.568 0.667969 333.663C0.667969 517.76 149.906 666.997 334.001 666.997Z" fill="#006727"/>
<path d="M409.34 337L359.007 319.333V206.333H371.007C398.007 206.333 420.007 230 420.007 259C420.007 272.667 431.34 284 445.007 284C458.673 284 470.007 272.667 470.007 259C470.007 202.333 425.673 156.333 371.007 156.333H359.007V137C359.007 123.333 347.673 112 334.007 112C320.34 112 309.007 123.333 309.007 137V156.333H287.34C238.005 156.333 197.672 198 197.672 249C197.672 308.667 232.339 327.667 258.672 337L309.007 354.667V467.333H297.007C270.007 467.333 248.005 443.667 248.005 414.667C248.005 401 236.672 389.667 223.005 389.667C209.339 389.667 198.005 401 198.005 414.667C198.005 471.333 242.339 517.333 297.007 517.333H309.007V537C309.007 550.667 320.34 562 334.007 562C347.673 562 359.007 550.667 359.007 537V517.667H380.673C430.007 517.667 470.34 476 470.34 425C470.007 365 435.34 346 409.34 337ZM275.34 290C258.339 284 248.005 278.333 248.005 249.333C248.005 225.667 265.672 206.667 287.673 206.667H309.34V302L275.34 290ZM380.673 467.667H359.007V372.333L392.673 384C409.673 390 420.007 395.667 420.007 424.667C420.007 448.333 402.34 467.667 380.673 467.667Z" fill="#009137"/>
</g>
<defs>
<clipPath id="clip0_66_100">
<rect width="668" height="667" fill="white"/>
</clipPath>
</defs>
</svg>
